<?xml version="1.0" standalone="no"?>
<!DOCTYPE svg PUBLIC "-//W3C//DTD SVG 20010904//EN"
 "http://www.w3.org/TR/2001/REC-SVG-20010904/DTD/svg10.dtd">
<svg version="1.0" xmlns="http://www.w3.org/2000/svg"
 width="512.000000pt" height="512.000000pt" viewBox="0 0 512.000000 512.000000"
 preserveAspectRatio="xMidYMid meet">

<g transform="translate(0.000000,512.000000) scale(0.100000,-0.100000)"
fill="#000000" stroke="none">
<path d="M2144 5077 c-86 -58 -698 -509 -726 -535 -69 -63 -29 -171 63 -172
31 0 80 33 384 256 191 140 353 253 360 250 19 -7 1960 -1436 1963 -1445 1 -4
-23 -42 -53 -84 l-56 -77 -32 24 c-18 13 -427 315 -911 670 -930 684 -906 668
-966 636 -10 -5 -422 -307 -915 -670 -494 -363 -899 -659 -900 -658 -1 2 -28
38 -59 80 l-57 78 113 83 c62 45 214 157 337 247 245 180 263 200 241 265 -18
56 -88 83 -140 55 -56 -30 -758 -555 -772 -578 -21 -31 -22 -68 -5 -98 20 -35
248 -343 262 -354 28 -23 82 -23 118 -1 19 11 37 21 41 21 3 0 6 -382 6 -849
l0 -850 24 -28 24 -28 1096 -3 1096 -2 0 -93 c0 -488 295 -938 737 -1126 164
-70 231 -84 440 -89 219 -5 278 3 433 54 370 123 655 416 775 797 110 347 51
729 -160 1047 -61 91 -206 238 -298 304 -146 103 -337 181 -502 206 -44 7 -86
14 -92 16 -10 3 -13 77 -13 328 l0 325 36 -24 c40 -27 77 -31 112 -12 25 14
257 325 277 372 18 41 9 78 -28 112 -18 16 -126 99 -242 183 -115 85 -370 271
-565 415 -1042 767 -1278 941 -1309 962 -46 31 -80 29 -137 -10z m869 -1271
l787 -580 -2 -400 -3 -401 -51 -6 c-67 -8 -93 -24 -110 -66 -12 -27 -13 -42
-4 -69 18 -55 35 -59 240 -60 168 0 194 -3 285 -27 363 -98 635 -371 733 -736
35 -134 37 -352 4 -484 -78 -310 -284 -562 -568 -694 -42 -19 -120 -46 -173
-61 -84 -22 -116 -25 -251 -25 -136 0 -167 3 -254 26 -363 97 -636 371 -734
736 -22 84 -25 116 -25 251 0 136 3 167 26 254 32 119 96 255 166 351 59 81
65 117 26 163 -47 56 -106 48 -167 -21 l-38 -42 0 505 c0 297 -4 519 -10 539
-16 57 -52 100 -106 127 l-50 25 -531 -3 -531 -3 -44 -30 c-25 -18 -52 -49
-65 -75 l-23 -44 0 -723 0 -723 -450 0 -450 0 0 859 0 859 338 249 c185 137
429 316 541 398 111 83 314 232 450 332 135 100 249 181 252 180 3 -1 359
-263 792 -581z m-313 -1596 l0 -700 -480 0 -480 0 0 700 0 700 480 0 480 0 0
-700z"/>
<path d="M3291 2266 c-87 -48 -50 -186 49 -186 51 0 100 49 100 99 0 75 -83
124 -149 87z"/>
<path d="M3560 1767 c-136 -38 -224 -153 -224 -292 1 -87 25 -146 90 -215 l47
-50 -47 -50 c-65 -69 -89 -128 -90 -215 -1 -267 309 -396 509 -213 l55 50 50
-45 c73 -65 131 -90 215 -90 119 -1 218 61 271 170 22 45 27 69 27 127 -1 88
-23 141 -88 214 l-48 53 35 37 c55 59 77 96 93 161 48 186 -95 365 -290 365
-87 -1 -146 -25 -215 -90 l-50 -47 -50 47 c-83 78 -194 110 -290 83z m107
-198 c15 -5 65 -47 110 -92 76 -74 87 -82 122 -82 36 0 47 8 128 86 49 47 101
89 116 93 16 4 41 0 62 -8 42 -18 69 -71 59 -113 -4 -15 -46 -67 -93 -116 -77
-80 -86 -93 -86 -127 0 -34 9 -47 86 -127 47 -49 89 -101 93 -116 10 -42 -17
-95 -59 -113 -21 -8 -46 -12 -62 -8 -15 4 -67 46 -116 93 -80 77 -93 86 -127
86 -34 0 -47 -9 -127 -86 -49 -47 -101 -89 -116 -93 -66 -16 -137 55 -121 121
4 15 46 67 93 116 77 80 86 93 86 127 0 34 -9 47 -86 127 -47 49 -89 101 -93
116 -10 41 17 95 56 112 40 17 40 17 75 4z"/>
<path d="M2448 2294 c-34 -18 -48 -43 -48 -84 0 -42 15 -67 50 -85 43 -22 76
-18 112 14 27 24 33 36 33 71 0 35 -6 47 -33 71 -36 32 -72 36 -114 13z"/>
<path d="M1111 4316 c-90 -50 -50 -186 55 -186 35 0 94 59 94 94 0 80 -80 130
-149 92z"/>
</g>
</svg>
