<?xml version="1.0" standalone="no"?>
<!DOCTYPE svg PUBLIC "-//W3C//DTD SVG 20010904//EN"
 "http://www.w3.org/TR/2001/REC-SVG-20010904/DTD/svg10.dtd">
<svg version="1.0" xmlns="http://www.w3.org/2000/svg"
 width="512.000000pt" height="512.000000pt" viewBox="0 0 512.000000 512.000000"
 preserveAspectRatio="xMidYMid meet">

<g transform="translate(0.000000,512.000000) scale(0.100000,-0.100000)"
fill="#000000" stroke="none">
<path d="M1349 4146 c-564 -376 -1029 -692 -1033 -701 -3 -9 -6 -25 -6 -35 0
-25 193 -316 219 -329 37 -20 66 -11 163 54 54 36 100 65 103 65 3 0 5 -414 5
-920 l0 -920 -175 0 c-173 0 -176 0 -200 -25 l-25 -24 0 -231 0 -231 25 -24
24 -25 1424 0 1423 0 56 -78 c65 -90 208 -231 293 -288 92 -63 189 -114 215
-114 58 0 231 123 356 252 146 152 247 326 298 518 40 151 46 230 46 596 l0
345 -25 24 -24 25 -256 0 -255 0 0 560 c0 308 2 560 5 560 3 0 49 -29 103 -65
108 -72 144 -81 179 -42 41 44 203 299 203 318 0 11 -5 29 -11 41 -16 30
-2038 1371 -2074 1375 -26 3 -179 -95 -1056 -681z m2001 -123 c517 -344 940
-630 940 -635 0 -5 -18 -36 -41 -69 l-40 -60 -28 18 c-15 10 -414 277 -887
593 -727 487 -864 575 -894 575 -30 0 -167 -88 -894 -575 -473 -316 -872 -583
-887 -593 l-28 -18 -41 61 c-23 33 -40 65 -38 70 4 13 1869 1258 1886 1259 6
1 435 -281 952 -626z m-230 -233 l720 -480 0 -615 0 -615 -160 0 -160 0 0 455
0 456 -25 24 -24 25 -351 0 -351 0 -24 -25 -25 -24 0 -536 0 -535 -55 0 c-46
0 -60 -4 -80 -25 -33 -32 -33 -78 0 -110 l24 -25 256 0 255 0 0 -200 0 -200
-360 0 -360 0 0 815 0 816 -25 24 -24 25 -511 0 -511 0 -24 -25 -25 -24 0
-816 0 -815 -160 0 -160 0 0 975 0 975 718 479 c394 264 718 480 720 480 1 1
326 -215 722 -479z m-880 -1670 l0 -760 -400 0 -400 0 0 760 0 760 400 0 400
0 0 -760z m1120 560 l0 -200 -240 0 -240 0 0 200 0 200 240 0 240 0 0 -200z
m0 -480 l0 -120 -95 0 c-88 0 -98 -2 -120 -25 -21 -20 -25 -34 -25 -80 l0 -55
-120 0 -120 0 0 200 0 200 240 0 240 0 0 -120z m1038 -612 c-4 -320 -6 -337
-31 -430 -67 -252 -226 -479 -432 -617 l-75 -50 -53 30 c-285 167 -475 458
-517 791 -5 46 -10 201 -10 345 l0 263 561 0 561 0 -4 -332z m-1248 -430 c10
-38 45 -151 58 -185 3 -10 -265 -13 -1322 -13 l-1326 0 0 120 0 120 1290 0
1289 0 11 -42z"/>
<path d="M1545 2215 c-50 -49 -15 -135 55 -135 19 0 40 9 55 25 16 15 25 36
25 55 0 19 -9 40 -25 55 -15 16 -36 25 -55 25 -19 0 -40 -9 -55 -25z"/>
<path d="M3943 1418 l-183 -182 -103 102 c-88 86 -109 102 -136 102 -43 0 -81
-38 -81 -82 0 -28 18 -50 143 -175 128 -129 146 -143 177 -143 32 0 53 19 257
223 200 199 223 226 223 255 0 44 -38 82 -81 82 -29 0 -54 -21 -216 -182z"/>
</g>
</svg>
