<?xml version="1.0" standalone="no"?>
<!DOCTYPE svg PUBLIC "-//W3C//DTD SVG 20010904//EN"
 "http://www.w3.org/TR/2001/REC-SVG-20010904/DTD/svg10.dtd">
<svg version="1.0" xmlns="http://www.w3.org/2000/svg"
 width="512.000000pt" height="512.000000pt" viewBox="0 0 512.000000 512.000000"
 preserveAspectRatio="xMidYMid meet">

<g transform="translate(0.000000,512.000000) scale(0.100000,-0.100000)"
fill="#000000" stroke="none">
<path d="M3510 5102 c-39 -19 -648 -704 -674 -759 -24 -47 -21 -123 7 -163 47
-70 61 -75 238 -78 l159 -3 0 -630 c0 -346 -2 -629 -4 -629 -2 0 -140 106
-306 235 -311 242 -332 254 -403 241 -22 -4 -117 -71 -288 -204 -140 -109
-261 -202 -267 -206 -9 -5 -12 51 -12 233 l0 241 153 0 c139 0 155 2 191 23
71 40 104 136 72 210 -21 48 -628 738 -673 764 -49 29 -108 29 -160 1 -37 -21
-156 -152 -605 -670 -78 -90 -97 -138 -78 -203 7 -22 24 -53 38 -68 49 -52 69
-57 232 -57 l150 0 0 -507 0 -508 -321 -249 c-177 -137 -330 -263 -340 -280
-21 -35 -25 -106 -8 -139 7 -12 54 -77 106 -144 74 -96 103 -125 134 -137 51
-21 75 -20 127 4 l42 19 0 -618 c0 -683 0 -687 62 -750 18 -19 51 -42 73 -52
38 -18 105 -19 1406 -19 l1365 0 51 25 c56 28 95 77 112 140 7 27 11 248 11
657 l0 617 43 -19 c51 -24 75 -25 126 -4 31 12 60 41 134 137 52 67 99 132
106 144 17 34 13 104 -8 140 -11 17 -143 127 -295 245 l-275 213 -1 903 0 902
146 0 c165 0 197 9 241 67 34 45 43 125 18 173 -9 18 -156 192 -327 387 -216
246 -322 360 -349 373 -47 25 -103 25 -149 2z m376 -495 l290 -332 -189 -5
c-184 -5 -189 -6 -208 -29 -18 -22 -19 -52 -19 -912 0 -489 -3 -889 -7 -889
-5 0 -83 59 -175 130 l-168 131 0 754 c0 414 -3 761 -6 769 -13 34 -47 41
-230 46 l-182 5 295 338 c163 186 298 335 302 332 3 -4 137 -156 297 -338z
m-1966 -717 l292 -335 -187 -5 -187 -5 -24 -28 -24 -28 0 -363 0 -363 -167
-131 -168 -130 -5 499 -5 498 -23 23 c-21 22 -32 23 -207 28 l-185 5 292 337
c161 185 296 336 299 335 4 -1 138 -153 299 -337z m1539 -1442 c484 -376 880
-686 880 -691 1 -4 -29 -45 -65 -92 -44 -56 -71 -82 -78 -76 -507 399 -1603
1242 -1620 1247 -13 3 -35 0 -48 -7 -12 -7 -376 -287 -808 -622 -432 -336
-790 -614 -796 -619 -7 -5 -35 22 -79 78 -65 84 -66 87 -49 104 60 59 1760
1370 1771 1366 7 -3 409 -313 892 -688z m-211 -339 l682 -531 0 -682 c0 -601
-2 -684 -16 -704 l-15 -22 -1339 0 -1339 0 -15 22 c-14 20 -16 103 -16 704 l0
681 683 532 c375 292 684 531 687 531 3 0 312 -239 688 -531z"/>
<path d="M2501 1936 c-18 -19 -24 -40 -28 -89 l-6 -65 -36 -7 c-106 -19 -230
-116 -274 -213 -49 -110 -15 -247 81 -333 50 -44 146 -95 200 -105 l32 -6 0
-169 0 -169 -37 15 c-78 32 -120 77 -130 140 -8 54 -37 85 -80 85 -46 0 -68
-13 -83 -49 -15 -38 0 -118 35 -177 47 -80 164 -162 256 -179 l36 -7 6 -65 c6
-80 31 -113 87 -113 56 0 81 33 87 113 l6 65 36 7 c58 11 136 52 190 101 173
155 129 398 -91 509 -38 19 -85 37 -104 41 l-34 6 0 169 c0 93 2 169 5 169 3
0 25 -9 50 -21 60 -28 101 -77 110 -131 10 -58 39 -88 84 -88 43 1 66 17 81
55 14 37 -2 114 -35 171 -47 80 -164 162 -256 179 l-36 7 -6 65 c-4 49 -10 70
-28 89 -31 33 -87 33 -118 0z m-31 -486 l0 -160 -27 11 c-137 52 -179 166 -91
246 23 22 94 62 111 63 4 0 7 -72 7 -160z m267 -391 c120 -74 96 -204 -49
-264 l-38 -15 0 160 0 160 27 -11 c15 -6 42 -19 60 -30z"/>
</g>
</svg>
